<svg width="316" height="50" viewBox="0 0 316 50" fill="none" xmlns="http://www.w3.org/2000/svg">
<path d="M310.512 0.374023H5.94162C2.91081 0.374023 0.453857 2.2783 0.453857 4.62735V45.0339C0.453857 47.383 2.91081 49.2872 5.94162 49.2872H310.512C313.543 49.2872 316 47.383 316 45.0339V4.62735C316 2.2783 313.543 0.374023 310.512 0.374023Z" fill="#03A9F4"/>
<path d="M103.183 31.436C102.437 31.436 101.765 31.308 101.167 31.052C100.57 30.7853 100.101 30.412 99.7593 29.932C99.418 29.452 99.2473 28.892 99.2473 28.252H101.199C101.242 28.732 101.429 29.1266 101.759 29.436C102.101 29.7453 102.575 29.9 103.183 29.9C103.813 29.9 104.303 29.7506 104.655 29.452C105.007 29.1426 105.183 28.748 105.183 28.268C105.183 27.8946 105.071 27.5906 104.847 27.356C104.634 27.1213 104.362 26.94 104.031 26.812C103.711 26.684 103.263 26.5453 102.687 26.396C101.962 26.204 101.37 26.012 100.911 25.82C100.463 25.6173 100.079 25.308 99.7593 24.892C99.4393 24.476 99.2793 23.9213 99.2793 23.228C99.2793 22.588 99.4393 22.028 99.7593 21.548C100.079 21.068 100.527 20.7 101.103 20.444C101.679 20.188 102.346 20.06 103.103 20.06C104.181 20.06 105.061 20.332 105.743 20.876C106.437 21.4093 106.821 22.1453 106.895 23.084H104.879C104.847 22.6786 104.655 22.332 104.303 22.044C103.951 21.756 103.487 21.612 102.911 21.612C102.389 21.612 101.962 21.7453 101.631 22.012C101.301 22.2786 101.135 22.6626 101.135 23.164C101.135 23.5053 101.237 23.788 101.439 24.012C101.653 24.2253 101.919 24.396 102.239 24.524C102.559 24.652 102.997 24.7906 103.551 24.94C104.287 25.1426 104.885 25.3453 105.343 25.548C105.813 25.7506 106.207 26.0653 106.527 26.492C106.858 26.908 107.023 27.468 107.023 28.172C107.023 28.7373 106.869 29.2706 106.559 29.772C106.261 30.2733 105.818 30.6786 105.231 30.988C104.655 31.2866 103.973 31.436 103.183 31.436ZM113.736 22.364C114.408 22.364 115.005 22.508 115.528 22.796C116.061 23.084 116.477 23.5106 116.776 24.076C117.085 24.6413 117.24 25.324 117.24 26.124V31.324H115.432V26.396C115.432 25.6066 115.234 25.004 114.84 24.588C114.445 24.1613 113.906 23.948 113.224 23.948C112.541 23.948 111.997 24.1613 111.592 24.588C111.197 25.004 111 25.6066 111 26.396V31.324H109.176V19.484H111V23.532C111.309 23.1586 111.698 22.8706 112.168 22.668C112.648 22.4653 113.17 22.364 113.736 22.364ZM118.958 26.876C118.958 25.9906 119.14 25.2066 119.502 24.524C119.876 23.8413 120.377 23.3133 121.006 22.94C121.646 22.556 122.35 22.364 123.118 22.364C123.812 22.364 124.414 22.5026 124.926 22.78C125.449 23.0466 125.865 23.3826 126.174 23.788V22.508H128.014V31.324H126.174V30.012C125.865 30.428 125.444 30.7746 124.91 31.052C124.377 31.3293 123.769 31.468 123.086 31.468C122.329 31.468 121.636 31.276 121.006 30.892C120.377 30.4973 119.876 29.9533 119.502 29.26C119.14 28.556 118.958 27.7613 118.958 26.876ZM126.174 26.908C126.174 26.3 126.046 25.772 125.79 25.324C125.545 24.876 125.22 24.5346 124.814 24.3C124.409 24.0653 123.972 23.948 123.502 23.948C123.033 23.948 122.596 24.0653 122.19 24.3C121.785 24.524 121.454 24.86 121.198 25.308C120.953 25.7453 120.83 26.268 120.83 26.876C120.83 27.484 120.953 28.0173 121.198 28.476C121.454 28.9346 121.785 29.2866 122.19 29.532C122.606 29.7666 123.044 29.884 123.502 29.884C123.972 29.884 124.409 29.7666 124.814 29.532C125.22 29.2973 125.545 28.956 125.79 28.508C126.046 28.0493 126.174 27.516 126.174 26.908ZM132.234 23.788C132.501 23.34 132.853 22.9933 133.29 22.748C133.738 22.492 134.266 22.364 134.874 22.364V24.252H134.41C133.695 24.252 133.151 24.4333 132.778 24.796C132.415 25.1586 132.234 25.788 132.234 26.684V31.324H130.41V22.508H132.234V23.788ZM144.631 26.7C144.631 27.0306 144.609 27.3293 144.567 27.596H137.831C137.884 28.3 138.145 28.8653 138.615 29.292C139.084 29.7186 139.66 29.932 140.343 29.932C141.324 29.932 142.017 29.5213 142.423 28.7H144.391C144.124 29.5106 143.639 30.1773 142.935 30.7C142.241 31.212 141.377 31.468 140.343 31.468C139.5 31.468 138.743 31.2813 138.071 30.908C137.409 30.524 136.887 29.9906 136.503 29.308C136.129 28.6146 135.943 27.8146 135.943 26.908C135.943 26.0013 136.124 25.2066 136.487 24.524C136.86 23.8306 137.377 23.2973 138.039 22.924C138.711 22.5506 139.479 22.364 140.343 22.364C141.175 22.364 141.916 22.5453 142.567 22.908C143.217 23.2706 143.724 23.7826 144.087 24.444C144.449 25.0946 144.631 25.8466 144.631 26.7ZM142.727 26.124C142.716 25.452 142.476 24.9133 142.007 24.508C141.537 24.1026 140.956 23.9 140.263 23.9C139.633 23.9 139.095 24.1026 138.647 24.508C138.199 24.9026 137.932 25.4413 137.847 26.124H142.727ZM154.406 31.468C153.574 31.468 152.822 31.2813 152.15 30.908C151.478 30.524 150.95 29.9906 150.566 29.308C150.182 28.6146 149.99 27.8146 149.99 26.908C149.99 26.012 150.187 25.2173 150.582 24.524C150.977 23.8306 151.515 23.2973 152.198 22.924C152.881 22.5506 153.643 22.364 154.486 22.364C155.329 22.364 156.091 22.5506 156.774 22.924C157.457 23.2973 157.995 23.8306 158.39 24.524C158.785 25.2173 158.982 26.012 158.982 26.908C158.982 27.804 158.779 28.5986 158.374 29.292C157.969 29.9853 157.414 30.524 156.71 30.908C156.017 31.2813 155.249 31.468 154.406 31.468ZM154.406 29.884C154.875 29.884 155.313 29.772 155.718 29.548C156.134 29.324 156.47 28.988 156.726 28.54C156.982 28.092 157.11 27.548 157.11 26.908C157.11 26.268 156.987 25.7293 156.742 25.292C156.497 24.844 156.171 24.508 155.766 24.284C155.361 24.06 154.923 23.948 154.454 23.948C153.985 23.948 153.547 24.06 153.142 24.284C152.747 24.508 152.433 24.844 152.198 25.292C151.963 25.7293 151.846 26.268 151.846 26.908C151.846 27.8573 152.086 28.5933 152.566 29.116C153.057 29.628 153.67 29.884 154.406 29.884ZM165.233 22.364C165.926 22.364 166.545 22.508 167.089 22.796C167.644 23.084 168.076 23.5106 168.385 24.076C168.694 24.6413 168.849 25.324 168.849 26.124V31.324H167.041V26.396C167.041 25.6066 166.844 25.004 166.449 24.588C166.054 24.1613 165.516 23.948 164.833 23.948C164.15 23.948 163.606 24.1613 163.201 24.588C162.806 25.004 162.609 25.6066 162.609 26.396V31.324H160.785V22.508H162.609V23.516C162.908 23.1533 163.286 22.8706 163.745 22.668C164.214 22.4653 164.71 22.364 165.233 22.364ZM182.516 20.204V21.692H179.556V31.324H177.732V21.692H174.756V20.204H182.516ZM196.203 22.508L193.467 31.324H191.547L189.771 24.812L187.995 31.324H186.075L183.323 22.508H185.179L187.019 29.596L188.891 22.508H190.795L192.587 29.564L194.411 22.508H196.203ZM198.494 21.34C198.164 21.34 197.886 21.228 197.662 21.004C197.438 20.78 197.326 20.5026 197.326 20.172C197.326 19.8413 197.438 19.564 197.662 19.34C197.886 19.116 198.164 19.004 198.494 19.004C198.814 19.004 199.086 19.116 199.31 19.34C199.534 19.564 199.646 19.8413 199.646 20.172C199.646 20.5026 199.534 20.78 199.31 21.004C199.086 21.228 198.814 21.34 198.494 21.34ZM199.39 22.508V31.324H197.566V22.508H199.39ZM203.913 23.996V28.876C203.913 29.2066 203.988 29.4466 204.137 29.596C204.297 29.7346 204.564 29.804 204.937 29.804H206.057V31.324H204.617C203.796 31.324 203.166 31.132 202.729 30.748C202.292 30.364 202.073 29.74 202.073 28.876V23.996H201.033V22.508H202.073V20.316H203.913V22.508H206.057V23.996H203.913ZM209.866 23.996V28.876C209.866 29.2066 209.941 29.4466 210.09 29.596C210.25 29.7346 210.517 29.804 210.89 29.804H212.01V31.324H210.57C209.749 31.324 209.119 31.132 208.682 30.748C208.245 30.364 208.026 29.74 208.026 28.876V23.996H206.986V22.508H208.026V20.316H209.866V22.508H212.01V23.996H209.866ZM221.771 26.7C221.771 27.0306 221.75 27.3293 221.707 27.596H214.971C215.025 28.3 215.286 28.8653 215.755 29.292C216.225 29.7186 216.801 29.932 217.483 29.932C218.465 29.932 219.158 29.5213 219.563 28.7H221.531C221.265 29.5106 220.779 30.1773 220.075 30.7C219.382 31.212 218.518 31.468 217.483 31.468C216.641 31.468 215.883 31.2813 215.211 30.908C214.55 30.524 214.027 29.9906 213.643 29.308C213.27 28.6146 213.083 27.8146 213.083 26.908C213.083 26.0013 213.265 25.2066 213.627 24.524C214.001 23.8306 214.518 23.2973 215.179 22.924C215.851 22.5506 216.619 22.364 217.483 22.364C218.315 22.364 219.057 22.5453 219.707 22.908C220.358 23.2706 220.865 23.7826 221.227 24.444C221.59 25.0946 221.771 25.8466 221.771 26.7ZM219.867 26.124C219.857 25.452 219.617 24.9133 219.147 24.508C218.678 24.1026 218.097 23.9 217.403 23.9C216.774 23.9 216.235 24.1026 215.787 24.508C215.339 24.9026 215.073 25.4413 214.987 26.124H219.867ZM225.39 23.788C225.657 23.34 226.009 22.9933 226.446 22.748C226.894 22.492 227.422 22.364 228.03 22.364V24.252H227.566C226.852 24.252 226.308 24.4333 225.934 24.796C225.572 25.1586 225.39 25.788 225.39 26.684V31.324H223.566V22.508H225.39V23.788Z" fill="white"/>
<path d="M79.9945 20.5389C79.1555 20.7942 78.2682 20.9639 77.3598 21.0429C78.3175 20.6468 79.0336 20.0195 79.3724 19.2799C78.4768 19.6503 77.4971 19.9114 76.4755 20.0519C75.8486 19.584 75.0343 19.2585 74.1384 19.1178C73.2426 18.977 72.3069 19.0276 71.4528 19.2629C70.5988 19.4982 69.8661 19.9073 69.35 20.4369C68.8339 20.9666 68.5584 21.5924 68.5593 22.2327C68.5559 22.4772 68.5917 22.7211 68.666 22.9601C66.8465 22.8978 65.0663 22.5684 63.4418 21.9934C61.8173 21.4184 60.3851 20.6108 59.2388 19.6233C58.6501 20.325 58.4678 21.157 58.729 21.9493C58.9903 22.7416 59.6755 23.4344 60.6446 23.8862C59.9208 23.8728 59.2122 23.7383 58.5786 23.4939V23.5289C58.5796 24.2651 58.9439 24.9785 59.6103 25.5493C60.2766 26.1202 61.2045 26.5137 62.2379 26.6636C61.8464 26.736 61.4429 26.7718 61.0379 26.77C60.7473 26.7736 60.4569 26.7555 60.1719 26.7157C60.4671 27.3484 61.036 27.9017 61.8005 28.2997C62.565 28.6976 63.4874 28.9206 64.4411 28.9381C62.824 29.8193 60.8305 30.2976 58.7783 30.297C58.4125 30.2988 58.0468 30.2842 57.6836 30.2534C59.7742 31.1929 62.2102 31.69 64.6972 31.6847C66.4098 31.693 68.1077 31.4639 69.6923 31.0108C71.2769 30.5576 72.7166 29.8894 73.9278 29.0449C75.139 28.2004 76.0975 27.1965 76.7476 26.0916C77.3978 24.9866 77.7266 23.8025 77.7151 22.6081C77.7151 22.4667 77.7151 22.3306 77.6983 22.1955C78.6019 21.7454 79.3801 21.1839 79.9945 20.5389Z" fill="white"/>
</svg>
