<svg width="316" height="50" viewBox="0 0 316 50" fill="none" xmlns="http://www.w3.org/2000/svg">
<path d="M310.247 0.374023H5.67611C2.64531 0.374023 0.188354 2.2783 0.188354 4.62735V45.0339C0.188354 47.383 2.64531 49.2872 5.67611 49.2872H310.247C313.278 49.2872 315.734 47.383 315.734 45.0339V4.62735C315.734 2.2783 313.278 0.374023 310.247 0.374023Z" fill="#385C8E"/>
<path d="M44.9111 24.8923H47.1858V32.1527C47.1858 32.2215 47.2211 32.2875 47.2839 32.3362C47.3466 32.3848 47.4318 32.4122 47.5206 32.4122H51.3785C51.4672 32.4122 51.5524 32.3848 51.6152 32.3362C51.6779 32.2875 51.7132 32.2215 51.7132 32.1527V24.9263H54.3295C54.4115 24.9262 54.4907 24.9028 54.5519 24.8604C54.6131 24.8181 54.6521 24.7598 54.6615 24.6966L55.0594 22.0234C55.0648 21.9871 55.0603 21.9503 55.046 21.9155C55.0318 21.8806 55.0083 21.8485 54.9769 21.8212C54.9456 21.7939 54.9072 21.772 54.8641 21.757C54.8211 21.742 54.7745 21.7343 54.7274 21.7342H51.7091V20.0595C51.7091 19.5544 52.0603 19.2981 52.7518 19.2981H54.7219C54.8107 19.2981 54.8958 19.2708 54.9586 19.2221C55.0214 19.1735 55.0566 19.1075 55.0566 19.0387V16.5856C55.0574 16.5171 55.0232 16.4512 54.9615 16.4022C54.8998 16.3532 54.8157 16.3251 54.7274 16.324H52.0096H51.8847C50.6332 16.3274 49.4252 16.6804 48.4823 17.3182C48.0374 17.6196 47.696 18.0019 47.4888 18.4308C47.2817 18.8597 47.2153 19.3218 47.2956 19.7755V21.7353H44.907C44.8182 21.7353 44.7331 21.7626 44.6703 21.8113C44.6075 21.8599 44.5723 21.9259 44.5723 21.9947V24.6328C44.5723 24.6672 44.5811 24.7012 44.5981 24.7329C44.6152 24.7646 44.6402 24.7933 44.6718 24.8174C44.7033 24.8416 44.7407 24.8606 44.7818 24.8735C44.8229 24.8863 44.8668 24.8927 44.9111 24.8923Z" fill="white"/>
<path d="M75.8237 32.4476C75.0771 32.4476 74.4051 32.3196 73.8077 32.0636C73.2104 31.7969 72.7411 31.4236 72.3997 30.9436C72.0584 30.4636 71.8877 29.9036 71.8877 29.2636H73.8397C73.8824 29.7436 74.0691 30.1382 74.3997 30.4476C74.7411 30.7569 75.2157 30.9116 75.8237 30.9116C76.4531 30.9116 76.9437 30.7622 77.2957 30.4636C77.6477 30.1542 77.8237 29.7596 77.8237 29.2796C77.8237 28.9062 77.7117 28.6022 77.4877 28.3676C77.2744 28.1329 77.0024 27.9516 76.6717 27.8236C76.3517 27.6956 75.9037 27.5569 75.3277 27.4076C74.6024 27.2156 74.0104 27.0236 73.5517 26.8316C73.1037 26.6289 72.7197 26.3196 72.3997 25.9036C72.0797 25.4876 71.9197 24.9329 71.9197 24.2396C71.9197 23.5996 72.0797 23.0396 72.3997 22.5596C72.7197 22.0796 73.1677 21.7116 73.7437 21.4556C74.3197 21.1996 74.9864 21.0716 75.7437 21.0716C76.8211 21.0716 77.7011 21.3436 78.3837 21.8876C79.0771 22.4209 79.4611 23.1569 79.5357 24.0956H77.5197C77.4877 23.6902 77.2957 23.3436 76.9437 23.0556C76.5917 22.7676 76.1277 22.6236 75.5517 22.6236C75.0291 22.6236 74.6024 22.7569 74.2717 23.0236C73.9411 23.2902 73.7757 23.6742 73.7757 24.1756C73.7757 24.5169 73.8771 24.7996 74.0797 25.0236C74.2931 25.2369 74.5597 25.4076 74.8797 25.5356C75.1997 25.6636 75.6371 25.8022 76.1917 25.9516C76.9277 26.1542 77.5251 26.3569 77.9837 26.5596C78.4531 26.7622 78.8477 27.0769 79.1677 27.5036C79.4984 27.9196 79.6637 28.4796 79.6637 29.1836C79.6637 29.7489 79.5091 30.2822 79.1997 30.7836C78.9011 31.2849 78.4584 31.6902 77.8717 31.9996C77.2957 32.2982 76.6131 32.4476 75.8237 32.4476ZM86.376 23.3756C87.048 23.3756 87.6453 23.5196 88.168 23.8076C88.7013 24.0956 89.1173 24.5222 89.416 25.0876C89.7253 25.6529 89.88 26.3356 89.88 27.1356V32.3356H88.072V27.4076C88.072 26.6182 87.8746 26.0156 87.48 25.5996C87.0853 25.1729 86.5466 24.9596 85.864 24.9596C85.1813 24.9596 84.6373 25.1729 84.232 25.5996C83.8373 26.0156 83.64 26.6182 83.64 27.4076V32.3356H81.816V20.4956H83.64V24.5436C83.9493 24.1702 84.3386 23.8822 84.808 23.6796C85.288 23.4769 85.8106 23.3756 86.376 23.3756ZM91.5986 27.8876C91.5986 27.0022 91.7799 26.2182 92.1426 25.5356C92.5159 24.8529 93.0173 24.3249 93.6466 23.9516C94.2866 23.5676 94.9906 23.3756 95.7586 23.3756C96.4519 23.3756 97.0546 23.5142 97.5666 23.7916C98.0893 24.0582 98.5053 24.3942 98.8146 24.7996V23.5196H100.655V32.3356H98.8146V31.0236C98.5053 31.4396 98.0839 31.7862 97.5506 32.0636C97.0173 32.3409 96.4093 32.4796 95.7266 32.4796C94.9693 32.4796 94.2759 32.2876 93.6466 31.9036C93.0173 31.5089 92.5159 30.9649 92.1426 30.2716C91.7799 29.5676 91.5986 28.7729 91.5986 27.8876ZM98.8146 27.9196C98.8146 27.3116 98.6866 26.7836 98.4306 26.3356C98.1853 25.8876 97.8599 25.5462 97.4546 25.3116C97.0493 25.0769 96.6119 24.9596 96.1426 24.9596C95.6733 24.9596 95.2359 25.0769 94.8306 25.3116C94.4253 25.5356 94.0946 25.8716 93.8386 26.3196C93.5933 26.7569 93.4706 27.2796 93.4706 27.8876C93.4706 28.4956 93.5933 29.0289 93.8386 29.4876C94.0946 29.9462 94.4253 30.2982 94.8306 30.5436C95.2466 30.7782 95.6839 30.8956 96.1426 30.8956C96.6119 30.8956 97.0493 30.7782 97.4546 30.5436C97.8599 30.3089 98.1853 29.9676 98.4306 29.5196C98.6866 29.0609 98.8146 28.5276 98.8146 27.9196ZM104.874 24.7996C105.141 24.3516 105.493 24.0049 105.93 23.7596C106.378 23.5036 106.906 23.3756 107.514 23.3756V25.2636H107.05C106.336 25.2636 105.792 25.4449 105.418 25.8076C105.056 26.1702 104.874 26.7996 104.874 27.6956V32.3356H103.05V23.5196H104.874V24.7996ZM117.271 27.7116C117.271 28.0422 117.25 28.3409 117.207 28.6076H110.471C110.524 29.3116 110.786 29.8769 111.255 30.3036C111.724 30.7302 112.3 30.9436 112.983 30.9436C113.964 30.9436 114.658 30.5329 115.063 29.7116H117.031C116.764 30.5222 116.279 31.1889 115.575 31.7116C114.882 32.2236 114.018 32.4796 112.983 32.4796C112.14 32.4796 111.383 32.2929 110.711 31.9196C110.05 31.5356 109.527 31.0022 109.143 30.3196C108.77 29.6262 108.583 28.8262 108.583 27.9196C108.583 27.0129 108.764 26.2182 109.127 25.5356C109.5 24.8422 110.018 24.3089 110.679 23.9356C111.351 23.5622 112.119 23.3756 112.983 23.3756C113.815 23.3756 114.556 23.5569 115.207 23.9196C115.858 24.2822 116.364 24.7942 116.727 25.4556C117.09 26.1062 117.271 26.8582 117.271 27.7116ZM115.367 27.1356C115.356 26.4636 115.116 25.9249 114.647 25.5196C114.178 25.1142 113.596 24.9116 112.903 24.9116C112.274 24.9116 111.735 25.1142 111.287 25.5196C110.839 25.9142 110.572 26.4529 110.487 27.1356H115.367ZM127.046 32.4796C126.214 32.4796 125.462 32.2929 124.79 31.9196C124.118 31.5356 123.59 31.0022 123.206 30.3196C122.822 29.6262 122.63 28.8262 122.63 27.9196C122.63 27.0236 122.828 26.2289 123.222 25.5356C123.617 24.8422 124.156 24.3089 124.838 23.9356C125.521 23.5622 126.284 23.3756 127.126 23.3756C127.969 23.3756 128.732 23.5622 129.414 23.9356C130.097 24.3089 130.636 24.8422 131.03 25.5356C131.425 26.2289 131.622 27.0236 131.622 27.9196C131.622 28.8156 131.42 29.6102 131.014 30.3036C130.609 30.9969 130.054 31.5356 129.35 31.9196C128.657 32.2929 127.889 32.4796 127.046 32.4796ZM127.046 30.8956C127.516 30.8956 127.953 30.7836 128.358 30.5596C128.774 30.3356 129.11 29.9996 129.366 29.5516C129.622 29.1036 129.75 28.5596 129.75 27.9196C129.75 27.2796 129.628 26.7409 129.382 26.3036C129.137 25.8556 128.812 25.5196 128.406 25.2956C128.001 25.0716 127.564 24.9596 127.094 24.9596C126.625 24.9596 126.188 25.0716 125.782 25.2956C125.388 25.5196 125.073 25.8556 124.838 26.3036C124.604 26.7409 124.486 27.2796 124.486 27.9196C124.486 28.8689 124.726 29.6049 125.206 30.1276C125.697 30.6396 126.31 30.8956 127.046 30.8956ZM137.873 23.3756C138.567 23.3756 139.185 23.5196 139.729 23.8076C140.284 24.0956 140.716 24.5222 141.025 25.0876C141.335 25.6529 141.489 26.3356 141.489 27.1356V32.3356H139.681V27.4076C139.681 26.6182 139.484 26.0156 139.089 25.5996C138.695 25.1729 138.156 24.9596 137.473 24.9596C136.791 24.9596 136.247 25.1729 135.841 25.5996C135.447 26.0156 135.249 26.6182 135.249 27.4076V32.3356H133.425V23.5196H135.249V24.5276C135.548 24.1649 135.927 23.8822 136.385 23.6796C136.855 23.4769 137.351 23.3756 137.873 23.3756ZM154.516 21.2156V22.7036H149.796V25.9836H153.476V27.4716H149.796V32.3356H147.972V21.2156H154.516ZM155.599 27.8876C155.599 27.0022 155.78 26.2182 156.143 25.5356C156.516 24.8529 157.017 24.3249 157.647 23.9516C158.287 23.5676 158.991 23.3756 159.759 23.3756C160.452 23.3756 161.055 23.5142 161.567 23.7916C162.089 24.0582 162.505 24.3942 162.815 24.7996V23.5196H164.655V32.3356H162.815V31.0236C162.505 31.4396 162.084 31.7862 161.551 32.0636C161.017 32.3409 160.409 32.4796 159.727 32.4796C158.969 32.4796 158.276 32.2876 157.647 31.9036C157.017 31.5089 156.516 30.9649 156.143 30.2716C155.78 29.5676 155.599 28.7729 155.599 27.8876ZM162.815 27.9196C162.815 27.3116 162.687 26.7836 162.431 26.3356C162.185 25.8876 161.86 25.5462 161.455 25.3116C161.049 25.0769 160.612 24.9596 160.143 24.9596C159.673 24.9596 159.236 25.0769 158.831 25.3116C158.425 25.5356 158.095 25.8716 157.839 26.3196C157.593 26.7569 157.471 27.2796 157.471 27.8876C157.471 28.4956 157.593 29.0289 157.839 29.4876C158.095 29.9462 158.425 30.2982 158.831 30.5436C159.247 30.7782 159.684 30.8956 160.143 30.8956C160.612 30.8956 161.049 30.7782 161.455 30.5436C161.86 30.3089 162.185 29.9676 162.431 29.5196C162.687 29.0609 162.815 28.5276 162.815 27.9196ZM166.442 27.9196C166.442 27.0129 166.624 26.2182 166.986 25.5356C167.36 24.8422 167.872 24.3089 168.522 23.9356C169.173 23.5622 169.92 23.3756 170.762 23.3756C171.829 23.3756 172.709 23.6316 173.402 24.1436C174.106 24.6449 174.581 25.3649 174.826 26.3036H172.858C172.698 25.8662 172.442 25.5249 172.09 25.2796C171.738 25.0342 171.296 24.9116 170.762 24.9116C170.016 24.9116 169.418 25.1782 168.97 25.7116C168.533 26.2342 168.314 26.9702 168.314 27.9196C168.314 28.8689 168.533 29.6102 168.97 30.1436C169.418 30.6769 170.016 30.9436 170.762 30.9436C171.818 30.9436 172.517 30.4796 172.858 29.5516H174.826C174.57 30.4476 174.09 31.1622 173.386 31.6956C172.682 32.2182 171.808 32.4796 170.762 32.4796C169.92 32.4796 169.173 32.2929 168.522 31.9196C167.872 31.5356 167.36 31.0022 166.986 30.3196C166.624 29.6262 166.442 28.8262 166.442 27.9196ZM184.724 27.7116C184.724 28.0422 184.703 28.3409 184.66 28.6076H177.924C177.977 29.3116 178.239 29.8769 178.708 30.3036C179.177 30.7302 179.753 30.9436 180.436 30.9436C181.417 30.9436 182.111 30.5329 182.516 29.7116H184.484C184.217 30.5222 183.732 31.1889 183.028 31.7116C182.335 32.2236 181.471 32.4796 180.436 32.4796C179.593 32.4796 178.836 32.2929 178.164 31.9196C177.503 31.5356 176.98 31.0022 176.596 30.3196C176.223 29.6262 176.036 28.8262 176.036 27.9196C176.036 27.0129 176.217 26.2182 176.58 25.5356C176.953 24.8422 177.471 24.3089 178.132 23.9356C178.804 23.5622 179.572 23.3756 180.436 23.3756C181.268 23.3756 182.009 23.5569 182.66 23.9196C183.311 24.2822 183.817 24.7942 184.18 25.4556C184.543 26.1062 184.724 26.8582 184.724 27.7116ZM182.82 27.1356C182.809 26.4636 182.569 25.9249 182.1 25.5196C181.631 25.1142 181.049 24.9116 180.356 24.9116C179.727 24.9116 179.188 25.1142 178.74 25.5196C178.292 25.9142 178.025 26.4529 177.94 27.1356H182.82ZM188.343 24.8316C188.652 24.4049 189.074 24.0582 189.607 23.7916C190.151 23.5142 190.754 23.3756 191.415 23.3756C192.194 23.3756 192.898 23.5622 193.527 23.9356C194.156 24.3089 194.652 24.8422 195.015 25.5356C195.378 26.2182 195.559 27.0022 195.559 27.8876C195.559 28.7729 195.378 29.5676 195.015 30.2716C194.652 30.9649 194.151 31.5089 193.511 31.9036C192.882 32.2876 192.183 32.4796 191.415 32.4796C190.732 32.4796 190.124 32.3462 189.591 32.0796C189.068 31.8129 188.652 31.4716 188.343 31.0556V32.3356H186.519V20.4956H188.343V24.8316ZM193.703 27.8876C193.703 27.2796 193.575 26.7569 193.319 26.3196C193.074 25.8716 192.743 25.5356 192.327 25.3116C191.922 25.0769 191.484 24.9596 191.015 24.9596C190.556 24.9596 190.119 25.0769 189.703 25.3116C189.298 25.5462 188.967 25.8876 188.711 26.3356C188.466 26.7836 188.343 27.3116 188.343 27.9196C188.343 28.5276 188.466 29.0609 188.711 29.5196C188.967 29.9676 189.298 30.3089 189.703 30.5436C190.119 30.7782 190.556 30.8956 191.015 30.8956C191.484 30.8956 191.922 30.7782 192.327 30.5436C192.743 30.2982 193.074 29.9462 193.319 29.4876C193.575 29.0289 193.703 28.4956 193.703 27.8876ZM201.187 32.4796C200.355 32.4796 199.603 32.2929 198.931 31.9196C198.259 31.5356 197.731 31.0022 197.347 30.3196C196.963 29.6262 196.771 28.8262 196.771 27.9196C196.771 27.0236 196.968 26.2289 197.363 25.5356C197.758 24.8422 198.296 24.3089 198.979 23.9356C199.662 23.5622 200.424 23.3756 201.267 23.3756C202.11 23.3756 202.872 23.5622 203.555 23.9356C204.238 24.3089 204.776 24.8422 205.171 25.5356C205.566 26.2289 205.763 27.0236 205.763 27.9196C205.763 28.8156 205.56 29.6102 205.155 30.3036C204.75 30.9969 204.195 31.5356 203.491 31.9196C202.798 32.2929 202.03 32.4796 201.187 32.4796ZM201.187 30.8956C201.656 30.8956 202.094 30.7836 202.499 30.5596C202.915 30.3356 203.251 29.9996 203.507 29.5516C203.763 29.1036 203.891 28.5596 203.891 27.9196C203.891 27.2796 203.768 26.7409 203.523 26.3036C203.278 25.8556 202.952 25.5196 202.547 25.2956C202.142 25.0716 201.704 24.9596 201.235 24.9596C200.766 24.9596 200.328 25.0716 199.923 25.2956C199.528 25.5196 199.214 25.8556 198.979 26.3036C198.744 26.7409 198.627 27.2796 198.627 27.9196C198.627 28.8689 198.867 29.6049 199.347 30.1276C199.838 30.6396 200.451 30.8956 201.187 30.8956ZM211.39 32.4796C210.558 32.4796 209.806 32.2929 209.134 31.9196C208.462 31.5356 207.934 31.0022 207.55 30.3196C207.166 29.6262 206.974 28.8262 206.974 27.9196C206.974 27.0236 207.171 26.2289 207.566 25.5356C207.961 24.8422 208.499 24.3089 209.182 23.9356C209.865 23.5622 210.627 23.3756 211.47 23.3756C212.313 23.3756 213.075 23.5622 213.758 23.9356C214.441 24.3089 214.979 24.8422 215.374 25.5356C215.769 26.2289 215.966 27.0236 215.966 27.9196C215.966 28.8156 215.763 29.6102 215.358 30.3036C214.953 30.9969 214.398 31.5356 213.694 31.9196C213.001 32.2929 212.233 32.4796 211.39 32.4796ZM211.39 30.8956C211.859 30.8956 212.297 30.7836 212.702 30.5596C213.118 30.3356 213.454 29.9996 213.71 29.5516C213.966 29.1036 214.094 28.5596 214.094 27.9196C214.094 27.2796 213.971 26.7409 213.726 26.3036C213.481 25.8556 213.155 25.5196 212.75 25.2956C212.345 25.0716 211.907 24.9596 211.438 24.9596C210.969 24.9596 210.531 25.0716 210.126 25.2956C209.731 25.5196 209.417 25.8556 209.182 26.3036C208.947 26.7409 208.83 27.2796 208.83 27.9196C208.83 28.8689 209.07 29.6049 209.55 30.1276C210.041 30.6396 210.654 30.8956 211.39 30.8956ZM221.257 27.9356L225.321 32.3356H222.857L219.593 28.5436V32.3356H217.769V20.4956H219.593V27.3756L222.793 23.5196H225.321L221.257 27.9356Z" fill="white"/>
</svg>
